<svg width="40" height="40" viewBox="0 0 40 40" fill="none" xmlns="http://www.w3.org/2000/svg">
<path d="M37.1493 9.77681C37.6179 10.43 37.8576 11.1592 37.8576 11.9625C37.8593 17.2339 37.8651 22.5057 37.8543 27.7771C37.851 29.3702 37.136 30.5912 35.7677 31.4016C31.2304 34.0883 26.6869 36.7642 22.1438 39.4402C21.418 39.8678 20.6279 40.0482 19.7852 39.9893C20.0452 39.8951 20.0402 39.6849 20.0398 39.4576C20.0352 37.1562 20.0369 34.8552 20.0373 32.5537C20.0373 32.4297 20.0265 32.3045 20.0601 32.183C20.0987 32.0751 20.1879 32.0465 20.2895 32.039C20.6988 32.0092 21.0651 31.8599 21.4151 31.6517C24.1002 30.0553 26.7956 28.4772 29.4831 26.885C30.1442 26.4935 30.5693 25.9382 30.7207 25.1796C30.7469 25.0494 30.7452 24.9187 30.7452 24.7872C30.7452 21.5668 30.7427 18.3458 30.7485 15.1254C30.7493 14.7542 30.656 14.4166 30.4926 14.091C30.4524 14.0109 30.4005 13.9359 30.396 13.8421C30.4051 13.7273 30.4984 13.6849 30.5797 13.636C32.6912 12.3698 34.806 11.1098 36.9199 9.84773C36.99 9.80584 37.0588 9.754 37.1501 9.7764L37.1493 9.77681Z" fill="#4284F3"/>
<path d="M37.1489 9.77666C35.7329 10.6211 34.3174 11.4651 32.9015 12.3095C32.1433 12.7616 31.3852 13.2141 30.6274 13.6674C30.5569 13.7097 30.4897 13.7578 30.4213 13.8034C30.4035 13.8175 30.384 13.82 30.3636 13.8101C30.2629 13.7445 30.2015 13.6408 30.1256 13.5529C29.7768 13.1506 29.309 12.92 28.8581 12.6679C27.7367 12.0408 26.6206 11.405 25.5012 10.7741C24.1296 10.0006 22.7593 9.22423 21.3869 8.45197C21.2604 8.38064 21.1368 8.30515 21.0066 8.24045C20.1643 7.82446 19.3373 7.86511 18.5343 8.33792C15.8617 9.91187 13.1949 11.4966 10.5165 13.0602C10.0673 13.3223 9.72265 13.674 9.45306 14.1095C9.36929 14.146 9.30707 14.0917 9.24279 14.0556C8.00146 13.3663 6.76469 12.6691 5.52543 11.9765C4.63498 11.4788 3.74742 10.9761 2.85489 10.4826C2.74914 10.4241 2.6243 10.3859 2.5625 10.2661C2.86775 9.55561 3.37457 9.02432 4.0336 8.63529C7.08238 6.83447 10.1328 5.03655 13.1824 3.23739C14.6627 2.36435 16.1375 1.48136 17.6252 0.620767C19.0009 -0.175128 20.4168 -0.217017 21.8046 0.560628C26.2651 3.06154 30.712 5.58733 35.1676 8.09778C35.8155 8.46276 36.4405 8.84888 36.9104 9.44072C36.9958 9.54856 37.0908 9.64975 37.1497 9.77666H37.1489Z" fill="#3DDB83"/>
<path d="M2.56242 10.2661C3.6644 10.8808 4.76637 11.495 5.86793 12.1109C7.04125 12.767 8.21373 13.4248 9.38704 14.0818C9.40487 14.0917 9.42603 14.095 9.44552 14.1013C9.45921 14.1216 9.46377 14.144 9.45962 14.168C9.29746 14.5571 9.25308 14.9623 9.25391 15.3828C9.25971 18.7045 9.26013 22.0262 9.25474 25.3483C9.25349 25.9974 9.51976 26.476 10.0805 26.7949C11.5391 27.624 13.0024 28.4448 14.4627 29.2714C15.9168 30.0946 17.3721 30.915 18.8279 31.7354C19.1315 31.9066 19.4558 32.0199 19.8083 32.0394C19.905 32.0448 20.0008 32.0593 20.0874 32.1086C20.0953 32.1169 20.1036 32.1256 20.1115 32.1343C20.1094 32.9564 20.1057 33.7788 20.1053 34.6008C20.1045 36.2797 20.1053 37.959 20.1045 39.6379C20.1045 39.9631 20.1003 39.9631 19.7859 39.99C19.1136 39.9436 18.4973 39.73 17.9113 39.3986C13.155 36.7086 8.3958 34.0231 3.63702 31.3372C2.64164 30.7756 2.1398 29.9354 2.14063 28.7845C2.14477 23.2302 2.14187 17.6759 2.14353 12.1217C2.14353 11.473 2.26132 10.848 2.56367 10.2665L2.56242 10.2661Z" fill="#083042"/>
<path d="M30.3841 13.7983C30.3965 13.8004 30.409 13.802 30.4214 13.8029C30.4521 13.9182 30.5305 14.0102 30.5769 14.1164C30.7125 14.4266 30.8092 14.7427 30.8084 15.0927C30.8017 18.3062 30.803 21.5196 30.8054 24.733C30.8063 25.7044 30.3654 26.4219 29.5492 26.9117C28.2079 27.7171 26.8583 28.5093 25.5112 29.3048C24.1227 30.1251 22.7337 30.9451 21.3426 31.7613C21.0063 31.9587 20.6463 32.0927 20.2481 32.0977C20.2021 32.0981 20.1561 32.1213 20.11 32.1337L20.0918 32.1362C20.0387 32.0649 20.0379 31.9815 20.037 31.8986C20.03 30.746 19.9686 29.5943 19.9947 28.4413C19.9968 28.345 19.9893 28.2476 20.0213 28.1543C20.0478 28.0883 20.1067 28.0638 20.1689 28.056C20.5803 28.005 20.9204 27.7868 21.2647 27.5832C22.9419 26.5915 24.6204 25.6015 26.2997 24.6136C26.8849 24.2694 27.1818 23.7663 27.1798 23.0786C27.1739 21.0402 27.1735 19.0017 27.1818 16.9628C27.1831 16.6082 27.1209 16.2781 26.972 15.9608C26.9761 15.8509 27.0719 15.8198 27.1424 15.7704C28.1258 15.0799 29.1593 14.4702 30.1929 13.8593C30.2518 13.8244 30.3082 13.7805 30.3841 13.7979V13.7983Z" fill="#3870B1"/>
<path d="M30.3856 13.7986C29.2434 14.4854 28.0938 15.1606 27.0009 15.9262C26.9648 15.9229 26.9316 15.9092 26.9113 15.8806C26.6123 15.4575 26.1594 15.2419 25.7272 14.9976C24.1458 14.1055 22.5561 13.2283 20.9888 12.3117C20.236 11.8717 19.5475 11.8708 18.796 12.3324C17.1491 13.3444 15.4727 14.3079 13.8054 15.2871C13.4661 15.4861 13.163 15.7172 12.9713 16.0701C12.9548 16.1008 12.9286 16.124 12.8975 16.141C12.8137 16.1601 12.752 16.1103 12.6885 16.0709C11.7636 15.4978 10.8292 14.9403 9.87694 14.4132C9.72971 14.3315 9.55095 14.2917 9.45183 14.1345C9.44893 14.1237 9.44727 14.1125 9.44727 14.1009C9.61731 13.665 9.93542 13.3548 10.3249 13.1221C11.7491 12.2715 13.1787 11.43 14.6075 10.5864C15.9293 9.80581 17.2453 9.01448 18.5783 8.25301C19.4741 7.74121 20.3787 7.79845 21.2679 8.31397C22.0779 8.78388 22.897 9.23803 23.7116 9.70005C24.5021 10.1484 25.2913 10.5996 26.0827 11.0467C26.8802 11.4976 27.6819 11.9405 28.477 12.3955C28.9187 12.6481 29.3849 12.8608 29.7905 13.1735C30.0207 13.351 30.2268 13.5526 30.3865 13.7981L30.3856 13.7986Z" fill="#37BE6E"/>
<path d="M9.45006 14.1343C10.5753 14.7253 11.6665 15.3744 12.7435 16.0475C12.79 16.0765 12.8377 16.1035 12.885 16.1313C12.9356 16.1868 12.9153 16.2499 12.8962 16.3075C12.8223 16.5278 12.8223 16.755 12.8223 16.9836C12.8236 19.1519 12.8273 21.3201 12.8199 23.488C12.8182 23.9886 13.0214 24.3374 13.4573 24.5829C15.3398 25.6434 17.2232 26.7031 19.1012 27.7715C19.3442 27.9096 19.5993 28.0079 19.8759 28.0502C19.9427 28.0606 20.0161 28.056 20.0646 28.1186C20.0679 28.9025 20.0572 29.6868 20.0795 30.4698C20.0953 31.026 20.1144 31.5813 20.0924 32.1371C19.3421 32.1296 18.7266 31.7605 18.1054 31.4013C17.4136 31.0015 16.7156 30.6129 16.0204 30.2193C15.1155 29.7067 14.2113 29.1924 13.3059 28.681C12.6042 28.2845 11.9008 27.8913 11.1986 27.4961C10.7727 27.256 10.3368 27.0312 9.92453 26.7695C9.4596 26.4746 9.19997 26.0379 9.19955 25.4771C9.19665 22.0028 9.19582 18.5281 9.20121 15.0538C9.20163 14.7311 9.25264 14.4101 9.45047 14.1347L9.45006 14.1343Z" fill="#041619"/>
<path d="M20.0647 28.1178C19.7333 28.1186 19.4289 28.024 19.1423 27.8619C17.217 26.7719 15.2918 25.682 13.3653 24.5945C12.963 24.3676 12.761 24.0334 12.7614 23.5688C12.7639 21.401 12.7652 19.2327 12.7598 17.0648C12.759 16.7455 12.7785 16.4336 12.8846 16.1312C13.0518 15.7567 13.3379 15.4992 13.6855 15.2947C15.4341 14.2661 17.1835 13.2388 18.9262 12.2007C19.5678 11.8187 20.1924 11.8092 20.8411 12.1783C22.6705 13.2185 24.5045 14.2508 26.3377 15.2843C26.616 15.4411 26.8258 15.6642 26.9992 15.9264C27.19 16.2287 27.2456 16.5613 27.2452 16.9139C27.2418 18.9727 27.2418 21.0314 27.2443 23.0906C27.2452 23.7804 26.9486 24.2955 26.3576 24.6443C24.5576 25.706 22.7568 26.7657 20.9585 27.8303C20.6797 27.9954 20.3874 28.0999 20.0643 28.1182L20.0647 28.1178Z" fill="#D5EFFE"/>
</svg>
