<svg width="40" height="41" viewBox="0 0 40 41" fill="none" xmlns="http://www.w3.org/2000/svg">
<rect y="0.54834" width="40" height="40" rx="10" fill="#1C1C1C"/>
<g clip-path="url(#clip0_1326_425)">
<path d="M15.9148 32.8064C18.1698 32.8064 20 30.9758 20 28.7204V24.6343H15.9148C13.6598 24.6343 11.8296 26.4649 11.8296 28.7204C11.8296 30.9758 13.6598 32.8064 15.9148 32.8064Z" fill="#0ACF83"/>
<path d="M11.8296 20.5484C11.8296 18.2929 13.6598 16.4623 15.9148 16.4623H20V24.6344H15.9148C13.6598 24.6344 11.8296 22.8038 11.8296 20.5484Z" fill="#A259FF"/>
<path d="M11.8364 12.3763C11.8364 10.1208 13.6666 8.29028 15.9216 8.29028H20.0068V16.4623H15.9216C13.6666 16.4623 11.8364 14.6318 11.8364 12.3763Z" fill="#F24E1E"/>
<path d="M20 8.29028H24.0852C26.3402 8.29028 28.1704 10.1208 28.1704 12.3763C28.1704 14.6318 26.3402 16.4623 24.0852 16.4623H20V8.29028Z" fill="#FF7262"/>
<path d="M28.1704 20.5484C28.1704 22.8038 26.3402 24.6344 24.0852 24.6344C21.8302 24.6344 20 22.8038 20 20.5484C20 18.2929 21.8302 16.4623 24.0852 16.4623C26.3402 16.4623 28.1704 18.2929 28.1704 20.5484Z" fill="#1ABCFE"/>
</g>
<defs>
<clipPath id="clip0_1326_425">
<rect width="16.3441" height="24.5161" fill="white" transform="translate(11.8281 8.29028)"/>
</clipPath>
</defs>
</svg>
